<svg width="15" height="10" viewBox="0 0 15 10" fill="none" xmlns="http://www.w3.org/2000/svg">
<path d="M2.41813 0H1.17321C0.577554 0 0.0945435 0.482833 0.0945435 1.07866V8.92134C0.0945435 9.51717 0.577554 10 1.17321 10H2.41813C3.01375 10 3.49626 9.5172 3.49626 8.92134V1.07866C3.49626 0.482833 3.01375 0 2.41813 0Z" fill="black"/>
<path d="M13.3793 0H6.11382C5.51817 0 5.03516 0.482803 5.03516 1.07866V8.92134C5.03516 9.51717 5.51817 10 6.11382 10H13.3793C13.9754 10 14.4579 9.5172 14.4579 8.92134V1.07866C14.4579 0.482833 13.9754 0 13.3793 0ZM7.85435 7.91557C7.85435 8.07041 7.72884 8.19586 7.57418 8.19586H6.6917C6.53703 8.19586 6.41129 8.07041 6.41129 7.91557V7.03291C6.41129 6.87804 6.53703 6.75262 6.6917 6.75262H7.57418C7.72884 6.75262 7.85435 6.87807 7.85435 7.03291V7.91557ZM7.85435 5.44131C7.85435 5.59621 7.72884 5.72166 7.57418 5.72166H6.6917C6.53703 5.72166 6.41129 5.59621 6.41129 5.44131V4.55866C6.41129 4.40379 6.53703 4.27834 6.6917 4.27834H7.57418C7.72884 4.27834 7.85435 4.40379 7.85435 4.55866V5.44131ZM7.85435 2.96709C7.85435 3.12196 7.72884 3.24741 7.57418 3.24741H6.6917C6.53703 3.24741 6.41129 3.12196 6.41129 2.96709V2.08443C6.41129 1.92953 6.53703 1.80414 6.6917 1.80414H7.57418C7.72884 1.80414 7.85435 1.9295 7.85435 2.08443V2.96709ZM10.4682 7.91533C10.4682 8.07044 10.3424 8.19586 10.1873 8.19586H9.3053C9.15016 8.19586 9.02463 8.07041 9.02463 7.91533V7.03318C9.02463 6.87834 9.15016 6.75265 9.3053 6.75265H10.1873C10.3424 6.75265 10.4682 6.87834 10.4682 7.03318V7.91533ZM10.4682 5.44113C10.4682 5.59598 10.3424 5.72169 10.1873 5.72169H9.3053C9.15016 5.72169 9.02463 5.59598 9.02463 5.44113V4.55889C9.02463 4.40378 9.15016 4.27837 9.3053 4.27837H10.1873C10.3424 4.27837 10.4682 4.40381 10.4682 4.55889V5.44113ZM10.4682 2.96685C10.4682 3.12196 10.3424 3.24738 10.1873 3.24738H9.3053C9.15016 3.24738 9.02463 3.12193 9.02463 2.96685V2.08467C9.02463 1.92979 9.15016 1.80414 9.3053 1.80414H10.1873C10.3424 1.80414 10.4682 1.92979 10.4682 2.08467V2.96685ZM13.0818 7.91533C13.0818 8.07044 12.956 8.19586 12.8011 8.19586H11.9192C11.764 8.19586 11.6383 8.07041 11.6383 7.91533V7.03318C11.6383 6.87834 11.764 6.75265 11.9192 6.75265H12.8012C12.9561 6.75265 13.0819 6.87834 13.0819 7.03318V7.91533H13.0818ZM13.0818 5.44113C13.0818 5.59598 12.956 5.72169 12.8011 5.72169H11.9192C11.764 5.72169 11.6383 5.59598 11.6383 5.44113V4.55889C11.6383 4.40378 11.764 4.27837 11.9192 4.27837H12.8012C12.9561 4.27837 13.0819 4.40381 13.0819 4.55889V5.44113H13.0818ZM13.0818 2.96685C13.0818 3.12196 12.956 3.24738 12.8011 3.24738H11.9192C11.764 3.24738 11.6383 3.12193 11.6383 2.96685V2.08467C11.6383 1.92979 11.764 1.80414 11.9192 1.80414H12.8012C12.9561 1.80414 13.0819 1.92979 13.0819 2.08467V2.96685H13.0818Z" fill="black"/>
</svg>
