<svg width="13" height="12" viewBox="0 0 13 12" fill="none" xmlns="http://www.w3.org/2000/svg">
<path d="M11.7553 8.80678L10.0807 7.13215C9.4826 6.53406 8.46586 6.77332 8.22663 7.55081C8.0472 8.0891 7.44912 8.38815 6.91085 8.26851C5.71468 7.96946 4.09985 6.41445 3.80081 5.15847C3.62139 4.62017 3.98024 4.02209 4.51851 3.84269C5.29602 3.60345 5.53525 2.58671 4.93717 1.98863L3.26254 0.313994C2.78407 -0.104665 2.06637 -0.104665 1.64771 0.313994L0.511352 1.45035C-0.625007 2.64652 0.630969 5.81636 3.44196 8.62735C6.25295 11.4383 9.4228 12.7542 10.619 11.558L11.7553 10.4216C12.174 9.94314 12.174 9.22544 11.7553 8.80678Z" fill="black"/>
</svg>
