<svg width="36" height="50" viewBox="0 0 36 50" fill="none" xmlns="http://www.w3.org/2000/svg">
<path d="M17.7943 3.24345C13.7462 3.24345 10.3134 6.13622 9.63173 10.1218C9.54686 10.6182 9.68387 11.1231 10.0079 11.5072C10.3299 11.889 10.8011 12.108 11.3006 12.108H12.7544C13.0434 14.6334 15.1927 16.6015 17.7943 16.6015C20.3959 16.6015 22.5451 14.6334 22.8342 12.108H24.288C24.7875 12.108 25.2586 11.889 25.5807 11.5073C25.9046 11.1233 26.0418 10.6183 25.9569 10.1219C25.2754 6.13612 21.8426 3.24345 17.7943 3.24345ZM17.7943 15.1366C15.8042 15.1366 14.185 13.5175 14.185 11.5273C14.185 9.53719 15.8042 7.91805 17.7943 7.91805C19.7844 7.91805 21.4036 9.53709 21.4036 11.5273C21.4036 13.5176 19.7844 15.1366 17.7943 15.1366ZM24.4612 10.5627C24.4302 10.5994 24.3751 10.643 24.2881 10.643H22.7898C22.37 8.26551 20.2906 6.45321 17.7944 6.45321C15.2982 6.45321 13.2188 8.26542 12.799 10.643H11.3007C11.2137 10.643 11.1586 10.5993 11.1277 10.5627C11.1013 10.5313 11.0594 10.4644 11.0758 10.3686C11.6366 7.08876 14.4623 4.70829 17.7945 4.70829C21.1267 4.70829 23.9525 7.08886 24.5133 10.3685C24.5294 10.4644 24.4877 10.5313 24.4612 10.5627Z" fill="white"/>
<path d="M17.7943 18.3476C13.7462 18.3476 10.3133 21.2404 9.63173 25.2259C9.54686 25.7223 9.68387 26.2272 10.0078 26.6113C10.3299 26.9931 10.8011 27.2121 11.3006 27.2121H12.7544C13.0434 29.7374 15.1927 31.7056 17.7943 31.7056C20.3959 31.7056 22.5451 29.7374 22.8342 27.2121H24.288C24.7876 27.2121 25.2586 26.9931 25.5807 26.6114C25.9046 26.2274 26.0419 25.7224 25.9569 25.226C25.2754 21.2404 21.8426 18.3476 17.7943 18.3476ZM17.7943 30.2408C15.8042 30.2408 14.185 28.6216 14.185 26.6315C14.185 24.6414 15.8042 23.0222 17.7943 23.0222C19.7844 23.0222 21.4036 24.6414 21.4036 26.6315C21.4036 28.6216 19.7844 30.2408 17.7943 30.2408ZM24.4612 25.6669C24.4302 25.7035 24.3751 25.7472 24.2881 25.7472H22.7898C22.37 23.3697 20.2906 21.5574 17.7944 21.5574C15.2982 21.5574 13.2188 23.3696 12.799 25.7472H11.3007C11.2137 25.7472 11.1586 25.7035 11.1277 25.6669C11.1013 25.6355 11.0594 25.5687 11.0758 25.4729C11.6366 22.193 14.4623 19.8125 17.7945 19.8125C21.1267 19.8125 23.9525 22.193 24.5133 25.4728C24.5295 25.5686 24.4877 25.6355 24.4612 25.6669Z" fill="white"/>
<path d="M17.7943 33.4518C13.7462 33.4518 10.3133 36.3445 9.63173 40.3301C9.54686 40.8265 9.68387 41.3314 10.0078 41.7154C10.3299 42.0973 10.8011 42.3162 11.3006 42.3162H12.7544C13.0434 44.8416 15.1927 46.8098 17.7943 46.8098C20.3962 46.8098 22.5457 44.841 22.8343 42.3151C22.8412 42.3153 22.8477 42.3161 22.8546 42.3161H24.288C24.7876 42.3161 25.2586 42.0972 25.5807 41.7154C25.9046 41.3315 26.0419 40.8265 25.9569 40.33C25.2755 36.3446 21.8426 33.4518 17.7943 33.4518ZM17.7943 45.3449C15.8042 45.3449 14.185 43.7258 14.185 41.7357C14.185 39.7455 15.8042 38.1265 17.7943 38.1265C19.7844 38.1265 21.4036 39.7456 21.4036 41.7357C21.4036 43.7258 19.7844 45.3449 17.7943 45.3449ZM24.4612 40.771C24.4302 40.8076 24.3751 40.8514 24.2881 40.8514H22.8546C22.833 40.8514 22.8116 40.8528 22.7903 40.8546C22.3718 38.4755 20.2917 36.6615 17.7943 36.6615C15.2981 36.6615 13.2187 38.4737 12.7989 40.8513H11.3006C11.2136 40.8513 11.1585 40.8075 11.1276 40.7709C11.1012 40.7396 11.0593 40.6728 11.0757 40.577C11.6365 37.2971 14.4622 34.9166 17.7944 34.9166C21.1266 34.9166 23.9524 37.2971 24.5132 40.5769C24.5295 40.6728 24.4877 40.7397 24.4612 40.771Z" fill="white"/>
<path d="M20.5306 48.5351H8.31551C7.65829 48.5351 7.12538 48.0023 7.12538 47.345V2.65488C7.12538 1.99765 7.65819 1.46484 8.31541 1.46484H12.2854C12.6899 1.46484 13.0178 1.13691 13.0178 0.732421C13.0178 0.327929 12.6899 0 12.2854 0H8.31541C6.84911 0 5.66044 1.18867 5.66044 2.65498V3.24345H1.21865C0.545604 3.24345 0 3.78906 0 4.4621V5.71493C0 8.99227 2.47929 11.7 5.66053 12.0647V18.6287H1.21865C0.545604 18.6287 0 19.1743 0 19.8473V21.1002C0 24.3775 2.47929 27.0852 5.66053 27.4499V34.0139H1.21865C0.545604 34.0139 0 34.5595 0 35.2325V36.4853C0 39.7625 2.47929 42.4703 5.66053 42.835V47.3451C5.66053 48.8114 6.84921 50 8.31551 50H20.5306C20.9351 50 21.263 49.6721 21.263 49.2676C21.263 48.863 20.9351 48.5351 20.5306 48.5351ZM5.66053 41.3589C3.28925 41.0041 1.46484 38.9537 1.46484 36.4851V35.4784H5.66053V41.3589ZM5.66053 25.9739C3.28925 25.6191 1.46484 23.5687 1.46484 21.1001V20.0934H5.66053V25.9739ZM5.66053 10.5887C3.28925 10.234 1.46484 8.18358 1.46484 5.71493V4.70829H5.66053V10.5887Z" fill="white"/>
<path d="M35.5887 5.71493V4.4621C35.5887 3.78906 35.0431 3.24345 34.3701 3.24345H29.9282V2.65488C29.9282 1.18867 28.7395 0 27.2733 0H15.2705C14.866 0 14.5381 0.327929 14.5381 0.732421C14.5381 1.13691 14.866 1.46484 15.2705 1.46484H27.2733C27.9305 1.46484 28.4633 1.99765 28.4633 2.65478V47.345C28.4633 48.0023 27.9305 48.5351 27.2733 48.5351H23.2227C22.8182 48.5351 22.4903 48.863 22.4903 49.2675C22.4903 49.672 22.8182 49.9999 23.2227 49.9999H27.2733C28.7395 49.9999 29.9282 48.8113 29.9282 47.3451V42.8349C33.1094 42.4702 35.5888 39.7624 35.5888 36.4852V35.2324C35.5888 34.5593 35.0432 34.0138 34.3702 34.0138H29.9282V27.4499C33.1094 27.0852 35.5888 24.3774 35.5888 21.1001V19.8472C35.5888 19.1742 35.0432 18.6286 34.3702 18.6286H29.9282V12.0646C33.1094 11.7 35.5887 8.99217 35.5887 5.71493ZM29.9282 4.70829H34.124V5.71493C34.124 8.18358 32.2996 10.234 29.9282 10.5887V4.70829ZM34.1239 35.4785V36.4852C34.1239 38.9537 32.2995 41.0042 29.9281 41.359V35.4786H34.1239V35.4785ZM34.1239 20.0934V21.1001C34.1239 23.5687 32.2995 25.6191 29.9281 25.9739V20.0934H34.1239Z" fill="white"/>
</svg>
