<svg width="51" height="56" viewBox="0 0 51 56" fill="none" xmlns="http://www.w3.org/2000/svg">
<path fill-rule="evenodd" clip-rule="evenodd" d="M38.503 43.0005C37.8483 43.0005 37.3125 43.5363 37.3125 44.1911V54.9063L49.2183 43.0005H38.503Z" fill="#EEF5FF"/>
<path fill-rule="evenodd" clip-rule="evenodd" d="M37.3131 44.1911C37.3131 43.5363 37.849 43.0005 38.5037 43.0005H49.2189V2.28429C49.2189 1.62947 48.6828 1.09375 48.0284 1.09375H7.54992C6.89509 1.09375 6.35938 1.62947 6.35938 2.28429V53.7158C6.35938 54.3703 6.89509 54.9064 7.54992 54.9064H37.3131V44.1911Z" fill="white"/>
<path fill-rule="evenodd" clip-rule="evenodd" d="M40.5942 15.0011C40.5942 13.7981 39.6098 12.8137 38.4067 12.8137H3.28124C2.07812 12.8137 1.09375 13.7981 1.09375 15.0011V30.3137C1.09375 31.5168 2.07812 32.5011 3.28124 32.5011H38.4067C39.6097 32.5011 40.5942 31.5167 40.5942 30.3137V15.0011Z" fill="#EEF5FF"/>
<path d="M31.1113 17.1885H27.8301C27.2261 17.1885 26.7363 17.6782 26.7363 18.2823V27.0323C26.7363 27.6364 27.2261 28.126 27.8301 28.126C28.434 28.126 28.9238 27.6364 28.9238 27.0323V23.751H29.6758C30.2797 23.751 30.7695 23.2614 30.7695 22.6573C30.7695 22.0532 30.2797 21.5635 29.6758 21.5635H28.9238V19.376H31.1113C31.7153 19.376 32.2051 18.8864 32.2051 18.2823C32.2051 17.6782 31.7154 17.1885 31.1113 17.1885Z" fill="#FD6212"/>
<path d="M12.7637 17.1886H10.5762C9.97209 17.1886 9.48242 17.6783 9.48242 18.2823V27.0323C9.48242 27.6364 9.97209 28.1261 10.5762 28.1261C11.1802 28.1261 11.6699 27.6364 11.6699 27.0323V23.7511H12.7637C14.573 23.7511 16.0449 22.2791 16.0449 20.4698C16.0449 18.6606 14.573 17.1886 12.7637 17.1886ZM12.7637 21.5637H11.6699V19.3762H12.7637C13.3668 19.3762 13.8574 19.8669 13.8574 20.47C13.8574 21.0731 13.3669 21.5637 12.7637 21.5637Z" fill="#FD6212"/>
<path d="M21.2676 17.1886H19.0801C18.476 17.1886 17.9863 17.6783 17.9863 18.2823V27.0323C17.9863 27.6364 18.476 28.1261 19.0801 28.1261H21.2676C23.0769 28.1261 24.5488 26.6541 24.5488 24.8448V20.4698C24.5488 18.6606 23.0769 17.1886 21.2676 17.1886ZM22.3613 24.845C22.3613 25.4481 21.8707 25.9387 21.2676 25.9387H20.1738V19.3762H21.2676C21.8707 19.3762 22.3613 19.8669 22.3613 20.47V24.845Z" fill="#FD6212"/>
<path d="M50.0834 43.6683C50.2306 43.4779 50.3123 43.2416 50.3123 43.0005V2.28429C50.3123 1.02473 49.2876 0 48.028 0H7.54958C6.29002 0 5.26529 1.02473 5.26529 2.28429V11.7199H3.28124C1.47196 11.7199 0 13.1919 0 15.0012V30.3136C0 32.1229 1.47196 33.5948 3.28124 33.5948H5.2654V53.7157C5.2654 54.9753 6.29013 56 7.54969 56H37.3129C37.6003 56 37.8831 55.883 38.0863 55.6796L49.9921 43.7739C50.025 43.741 50.0549 43.7052 50.0834 43.6683ZM2.18749 30.3136V15.0012C2.18749 14.3981 2.67815 13.9074 3.28124 13.9074H38.4068C39.0099 13.9074 39.5004 14.3981 39.5004 15.0012V30.3136C39.5004 30.9167 39.0099 31.4073 38.4068 31.4073H3.28124C2.67815 31.4073 2.18749 30.9167 2.18749 30.3136ZM7.45278 53.7157V37.9699H12.3742C12.9783 37.9699 13.4679 37.4803 13.4679 36.8762C13.4679 36.2721 12.9783 35.7824 12.3742 35.7824H7.45278V33.5948H38.4068C40.216 33.5948 41.6879 32.1229 41.6879 30.3136V15.0012C41.6879 13.1919 40.216 11.7199 38.4068 11.7199H7.45278V2.28429C7.45278 2.23365 7.49894 2.18749 7.54958 2.18749H48.028C48.0787 2.18749 48.1248 2.23365 48.1248 2.28429V41.9068H38.5032C37.2437 41.9068 36.2189 42.9315 36.2189 44.191V53.8125H7.54958C7.49894 53.8125 7.45278 53.7663 7.45278 53.7157ZM46.578 44.0942L38.4066 52.2657V44.191C38.4066 44.1404 38.4527 44.0942 38.5033 44.0942H46.578Z" fill="#FD6212"/>
<path d="M17.2959 35.7824C16.6918 35.7824 16.2021 36.2721 16.2021 36.8762C16.2021 37.4803 16.6918 37.9699 17.2959 37.9699H17.2967C17.9007 37.9699 18.3901 37.4803 18.3901 36.8762C18.3901 36.2721 17.9 35.7824 17.2959 35.7824Z" fill="#FD6212"/>
</svg>
