<svg width="46" height="46" viewBox="0 0 46 46" fill="none" xmlns="http://www.w3.org/2000/svg">
<path d="M15.0176 35.4478C13.164 35.6588 11.8279 37.3398 12.039 39.1952C12.1414 40.0926 12.5873 40.8968 13.2949 41.4596C13.8999 41.9408 14.6336 42.196 15.3945 42.196C15.5237 42.196 15.6535 42.1886 15.7837 42.1738C17.6372 41.9627 18.9734 40.2818 18.7623 38.4264C18.5509 36.573 16.8711 35.2373 15.0176 35.4478ZM15.5802 40.3884C15.1597 40.4364 14.7454 40.3173 14.4134 40.0533C14.0814 39.7893 13.8722 39.4122 13.8243 38.9918C13.7252 38.121 14.3517 37.332 15.2207 37.2332C15.2814 37.2263 15.3416 37.2228 15.4013 37.2228C16.1966 37.2228 16.8847 37.8215 16.9768 38.6297C17.076 39.5005 16.4495 40.2895 15.5802 40.3884Z" fill="white"/>
<path d="M29.8591 31.2025L24.4323 31.8213C23.9393 31.8775 23.5852 32.3227 23.6414 32.8157C23.6937 33.2742 24.0823 33.6124 24.5329 33.6124C24.5669 33.6124 24.6012 33.6105 24.6358 33.6066L30.0626 32.9878C30.5556 32.9316 30.9097 32.4863 30.8535 31.9934C30.7973 31.5004 30.3521 31.1457 29.8591 31.2025Z" fill="white"/>
<path d="M32.0033 38.8369C31.5071 38.8369 31.1049 39.2391 31.1049 39.7353C31.1049 40.2315 31.5071 40.6338 32.0033 40.6338H32.0084C32.5046 40.6338 32.9043 40.2315 32.9043 39.7353C32.9043 39.2391 32.4995 38.8369 32.0033 38.8369Z" fill="white"/>
<path d="M45.3438 36.2052C45.1623 34.6194 43.7246 33.4761 42.139 33.6575L41.743 33.7027L40.1208 19.4638C40.0938 19.227 39.9739 19.0107 39.7874 18.8624C39.6009 18.714 39.3631 18.6462 39.1264 18.6729L33.4459 19.3205L31.834 5.18431C31.807 4.94758 31.6871 4.73124 31.5006 4.58291C31.314 4.43467 31.0766 4.36666 30.8395 4.39343L16.704 6.00565L16.4626 3.88843C16.3308 2.72865 15.7522 1.68747 14.8333 0.956779C13.9146 0.22636 12.7698 -0.103452 11.6103 0.0284369L2.56653 1.05731C0.980277 1.23897 -0.162609 2.6769 0.0189628 4.26244C0.199816 5.84618 1.63649 6.9906 3.224 6.81289L10.8674 5.93944L12.2067 17.6854L8.46397 22.5854C8.32301 22.7699 8.25895 23.0019 8.28528 23.2326L9.58206 34.6C8.56621 36.0029 8.04926 37.7732 8.25976 39.6253C8.47655 41.5326 9.42349 43.2412 10.9263 44.4364C12.2109 45.4582 13.7701 46 15.3879 46C15.6621 46 15.9381 45.9845 16.2146 45.953C18.8095 45.6562 20.9261 44.0054 21.9402 41.7882L28.0993 41.0863C28.5923 41.0302 28.9464 40.5849 28.8902 40.092C28.834 39.599 28.3895 39.2448 27.8958 39.3011L22.5016 39.9158C22.5984 39.2943 22.6163 38.6507 22.5415 37.9963C22.5303 37.8986 22.5161 37.8018 22.5012 37.7052L41.04 35.5914C41.0447 35.5909 41.0493 35.5911 41.0539 35.5906C41.0591 35.59 41.064 35.5887 41.0692 35.5881L42.3427 35.4429C42.9436 35.3738 43.4898 35.8078 43.5586 36.4094C43.6273 37.011 43.1936 37.5565 42.5923 37.6253L35.91 38.3868C35.4171 38.443 35.0629 38.8883 35.1191 39.3812C35.1714 39.8397 35.56 40.178 36.0107 40.178C36.0446 40.178 36.0789 40.1761 36.1135 40.1722L40.7626 39.6424L41.0998 42.081C41.1625 42.5348 41.551 42.8633 41.9964 42.8633C42.0377 42.8633 42.0796 42.8605 42.1216 42.8547C42.6176 42.7862 42.9639 42.3287 42.8954 41.8327L42.5642 39.4371L42.7963 39.4107C44.3821 39.2289 45.525 37.7912 45.3438 36.2052ZM25.1005 6.85646L25.4671 10.073L24.2917 9.51247C23.9817 9.36468 23.6145 9.40646 23.3457 9.62028L22.3247 10.4324L21.9579 7.21484L25.1005 6.85646ZM20.1728 7.41852L20.723 12.246C20.76 12.5705 20.97 12.8493 21.2717 12.9743C21.3826 13.0202 21.4994 13.0427 21.6155 13.0427C21.8154 13.0427 22.0131 12.976 22.1748 12.8474L24.025 11.376L26.1566 12.3925C26.4514 12.5331 26.7993 12.5026 27.0651 12.3129C27.331 12.1232 27.473 11.8042 27.436 11.4798L26.8858 6.65288L30.1505 6.28057L31.6606 19.5238L18.4168 21.0335L16.9075 7.79091L20.1728 7.41852ZM30.9371 25.549L29.3621 24.7978C29.0522 24.6499 28.685 24.6918 28.4162 24.9055L27.0491 25.9926L26.5849 21.9109L30.4713 21.4679L30.9371 25.549ZM3.02213 5.02736C2.41919 5.09474 1.87286 4.66017 1.80413 4.05823C1.73522 3.45682 2.16898 2.91139 2.77021 2.84257L7.48828 2.30576L7.73769 4.48848L3.02213 5.02736ZM11.5563 4.05221L9.52304 4.28454L9.27381 2.10272L11.8134 1.81379C12.4962 1.73616 13.1718 1.93121 13.715 2.36317C14.258 2.79504 14.5999 3.40876 14.6774 4.09165L16.7315 22.1122C16.732 22.1182 16.7319 22.124 16.7325 22.1299C16.7332 22.1359 16.7346 22.1415 16.7354 22.1475L17.8649 32.0569C17.1429 31.7927 16.3819 31.6458 15.6046 31.6252L12.551 4.84318C12.524 4.60636 12.404 4.39002 12.2175 4.24178C12.0309 4.09327 11.793 4.02544 11.5563 4.05221ZM12.5004 20.2611L13.8161 31.8002C12.8529 32.0176 11.9712 32.4261 11.2056 32.9791L10.1115 23.3885L12.5004 20.2611ZM16.0109 44.1677C14.5797 44.3302 13.1715 43.9263 12.0447 43.0301C10.9178 42.1338 10.2077 40.8526 10.0452 39.4224C9.70955 36.469 11.8385 33.7915 14.791 33.4538C16.2213 33.2913 17.6298 33.6954 18.7566 34.5914C19.8835 35.4877 20.5936 36.769 20.7562 38.1998C21.0938 41.1526 18.9649 43.8298 16.0109 44.1677ZM21.9998 35.9538C21.5374 34.8814 20.815 33.9328 19.8749 33.1852C19.8486 33.1644 19.8214 33.1453 19.795 33.1249L18.6203 22.8189L24.7996 22.1146L25.4469 27.8064C25.4838 28.1309 25.694 28.4097 25.9956 28.5348C26.1064 28.5807 26.2233 28.6033 26.3394 28.6033C26.5393 28.6033 26.737 28.5366 26.8987 28.408L29.0951 26.6614L31.6266 27.8688C31.9215 28.0094 32.2693 27.979 32.5352 27.7893C32.8011 27.5996 32.9431 27.2805 32.9061 26.9561L32.2566 21.2646L38.4371 20.56L39.9577 33.9062L21.9998 35.9538Z" fill="white"/>
</svg>
