<svg width="50" height="50" viewBox="0 0 50 50" fill="none" xmlns="http://www.w3.org/2000/svg">
<path d="M49.555 9.47974L47.5244 5.43559C47.2605 4.90985 46.7312 4.58336 46.143 4.58336H27.625V1.51029C27.625 0.677473 26.9475 0 26.1148 0H21.9325C21.0998 0 20.4223 0.677473 20.4223 1.51029V4.58336H15.1548C14.7505 4.58336 14.423 4.91102 14.423 5.31518C14.423 5.71934 14.7505 6.047 15.1548 6.047H46.143C46.1742 6.047 46.2022 6.06428 46.2164 6.09228L48.247 10.1365C48.2587 10.1597 48.2587 10.1872 48.2471 10.2103L46.2163 14.2546C46.2022 14.2825 46.1742 14.2998 46.143 14.2998H3.65755C3.62691 14.2998 3.59881 14.2829 3.58476 14.2557L1.47272 10.2113C1.46033 10.1876 1.46033 10.1592 1.47282 10.1354L3.58466 6.09121C3.59891 6.06388 3.62691 6.047 3.65755 6.047H12.036C12.4402 6.047 12.7678 5.71934 12.7678 5.31518C12.7678 4.91102 12.4402 4.58336 12.036 4.58336H3.65755C3.0799 4.58336 2.55484 4.90146 2.28729 5.41364L0.17554 9.45779C-0.0585458 9.90586 -0.0584483 10.441 0.175442 10.8889L2.28748 14.9334C2.55494 15.4455 3.08 15.7635 3.65765 15.7635H20.4224V19.9142L9.14349 20.9586C8.8171 20.9889 8.51891 21.173 8.3459 21.4509L6.0874 25.0755C5.8296 25.4891 5.88757 26.0214 6.2282 26.3701L9.21385 29.4239C9.41251 29.627 9.68777 29.7409 9.96977 29.7409C10.0125 29.7409 10.0556 29.7383 10.0986 29.7329L20.4222 28.4407V33.1259L9.98714 32.5615C9.98704 32.5615 9.98704 32.5615 9.98704 32.5615C9.44491 32.5324 8.98123 32.9459 8.94346 33.4831L8.62214 38.0581C8.58458 38.5953 8.9904 39.0699 9.52677 39.1162L20.4222 40.0577V49.2681C20.4222 49.6722 20.7497 49.9999 21.154 49.9999C21.5582 49.9999 21.8858 49.6722 21.8858 49.2681V40.1842L26.1612 40.5536V43.0158C26.1612 43.4199 26.4888 43.7476 26.893 43.7476C27.2973 43.7476 27.6249 43.4199 27.6249 43.0158V40.6801L35.6968 41.3776C35.7248 41.38 35.7527 41.3812 35.7807 41.3812C36.0591 41.3812 36.3297 41.2626 36.5178 41.0549L38.8352 38.4954C39.143 38.1554 39.1785 37.6526 38.9211 37.2725L36.9841 34.4142C36.8112 34.1591 36.5241 33.9968 36.2162 33.98L27.6249 33.5153V27.539L42.3371 25.6975C42.9047 25.6265 43.3162 25.106 43.2543 24.5372L42.6404 18.8981C42.5784 18.3293 42.0636 17.9094 41.4951 17.9624L33.6804 18.6861C33.2778 18.7233 32.9819 19.0798 33.0192 19.4823C33.0564 19.8848 33.4129 20.18 33.8153 20.1436L41.2291 19.4569L41.7557 24.2952L10.1183 28.2551L7.49962 25.5767L9.48072 22.3974L21.2288 21.3094H21.229L30.709 20.4315C31.1115 20.3942 31.4074 20.0378 31.3701 19.6353C31.3329 19.2328 30.9767 18.9369 30.574 18.974L27.625 19.2471V15.7635H46.1429C46.7311 15.7635 47.2604 15.437 47.5242 14.9113L49.5551 10.867C49.7731 10.4327 49.7731 9.91415 49.555 9.47974ZM21.8859 1.51029C21.8859 1.48453 21.9068 1.46365 21.9325 1.46365H26.1148C26.1405 1.46365 26.1614 1.48453 26.1614 1.51029V4.58336H21.886V1.51029H21.8859ZM37.5019 37.7874L35.5897 39.8995L26.9681 39.1545C26.968 39.1545 26.9679 39.1545 26.9678 39.1545L10.1147 37.6982L10.371 34.0483L35.9037 35.4291L37.5019 37.7874ZM26.1613 33.4363L21.8859 33.2051V28.2574L26.1613 27.7223V33.4363ZM26.1613 19.3827L21.8859 19.7786V15.7635H26.1613V19.3827Z" fill="white"/>
<path d="M4.72766 10.1734C4.72766 11.3728 5.70342 12.3486 6.90283 12.3486C8.10224 12.3486 9.07801 11.3728 9.07801 10.1734C9.07801 8.97401 8.10224 7.99825 6.90283 7.99825C5.70342 7.99825 4.72766 8.97401 4.72766 10.1734ZM7.61436 10.1734C7.61436 10.5658 7.29519 10.8849 6.90283 10.8849C6.51048 10.8849 6.19131 10.5658 6.19131 10.1734C6.19131 9.78106 6.51048 9.46189 6.90283 9.46189C7.29519 9.46189 7.61436 9.78106 7.61436 10.1734Z" fill="white"/>
<path d="M44.7832 10.1734C44.7832 8.97401 43.8074 7.99825 42.608 7.99825C41.4086 7.99825 40.4328 8.97401 40.4328 10.1734C40.4328 11.3728 41.4086 12.3486 42.608 12.3486C43.8074 12.3486 44.7832 11.3728 44.7832 10.1734ZM41.8965 10.1734C41.8965 9.78106 42.2157 9.46189 42.608 9.46189C43.0004 9.46189 43.3195 9.78106 43.3195 10.1734C43.3195 10.5658 43.0004 10.8849 42.608 10.8849C42.2157 10.8849 41.8965 10.5658 41.8965 10.1734Z" fill="white"/>
<path d="M26.8931 45.4029C26.4889 45.4029 26.1613 45.7306 26.1613 46.1347V49.2682C26.1613 49.6723 26.4889 50 26.8931 50C27.2974 50 27.625 49.6723 27.625 49.2682V46.1347C27.625 45.7306 27.2974 45.4029 26.8931 45.4029Z" fill="white"/>
</svg>
