<svg width="15" height="14" viewBox="0 0 15 14" fill="none" xmlns="http://www.w3.org/2000/svg">
<path fill-rule="evenodd" clip-rule="evenodd" d="M11.9975 2.03455C10.6878 0.723242 8.94589 0.000769042 7.09019 0C3.26633 0 0.154272 3.11197 0.152734 6.93685C0.152222 8.15955 0.471631 9.3531 1.07875 10.4052L0.0945435 14L3.77219 13.0353C4.78553 13.588 5.92637 13.8793 7.08737 13.8797H7.09027C10.9137 13.8797 14.0261 10.7675 14.0276 6.94241C14.0283 5.08867 13.3074 3.34576 11.9975 2.03455ZM7.09019 12.7081H7.08779C6.05317 12.7077 5.03846 12.4296 4.15304 11.9044L3.94258 11.7793L1.76021 12.3519L2.34271 10.2241L2.20557 10.0059C1.62836 9.08787 1.32356 8.02676 1.32407 6.93728C1.32527 3.75814 3.91199 1.17168 7.09249 1.17168C8.63263 1.17219 10.0804 1.77273 11.169 2.86263C12.2576 3.95254 12.8568 5.40125 12.8563 6.94198C12.8549 10.1214 10.2684 12.7081 7.09019 12.7081ZM10.253 8.38958C10.0797 8.30276 9.22744 7.88354 9.06851 7.82561C8.90974 7.76776 8.79404 7.73896 8.6786 7.91243C8.56299 8.08589 8.23085 8.47639 8.12967 8.592C8.0285 8.7077 7.9275 8.72223 7.75413 8.63541C7.58075 8.54868 7.02225 8.36556 6.36011 7.77502C5.84485 7.31539 5.49698 6.74775 5.39581 6.57429C5.29481 6.40066 5.39496 6.31589 5.47186 6.22053C5.65951 5.98751 5.84741 5.74321 5.90518 5.6276C5.96302 5.5119 5.93406 5.41064 5.89065 5.32391C5.84741 5.23718 5.50074 4.38397 5.35634 4.03679C5.21552 3.69893 5.07273 3.74456 4.96626 3.73926C4.86526 3.73422 4.74965 3.73319 4.63403 3.73319C4.51851 3.73319 4.33069 3.77651 4.17175 3.95015C4.0129 4.12369 3.56515 4.54299 3.56515 5.3962C3.56515 6.24941 4.18628 7.07366 4.27292 7.18936C4.35957 7.30505 5.49528 9.05591 7.23408 9.80666C7.64766 9.98542 7.97048 10.092 8.2223 10.1719C8.63759 10.3038 9.01536 10.2852 9.31409 10.2406C9.64717 10.1908 10.3396 9.82119 10.4841 9.41633C10.6286 9.01139 10.6286 8.66438 10.5851 8.592C10.5419 8.51971 10.4263 8.47639 10.253 8.38958Z" fill="black"/>
</svg>
