<svg width="40" height="38" viewBox="0 0 40 38" fill="none" xmlns="http://www.w3.org/2000/svg">
<path d="M4.375 6.25H10.625C12.7789 6.25 14.5312 4.49766 14.5312 2.34375C14.5312 1.91227 14.1815 1.5625 13.75 1.5625H7.5C5.34609 1.5625 3.59375 3.31484 3.59375 5.46875C3.59375 5.90023 3.94352 6.25 4.375 6.25ZM7.5 3.12422H12.8349C12.5124 4.03445 11.6436 4.6875 10.625 4.6875H5.29008C5.61258 3.77805 6.48141 3.125 7.5 3.12422Z" fill="#353FFC"/>
<path d="M16.875 6.25H26.25C27.4716 6.25 28.6252 5.66117 29.3588 4.6875H32.5C34.6539 4.6875 36.4063 2.93516 36.4063 0.78125C36.4063 0.349766 36.0565 0 35.625 0H26.25C25.0284 0 23.8748 0.588828 23.1413 1.5625H20C17.8461 1.5625 16.0938 3.31484 16.0938 5.46875C16.0938 5.90023 16.4435 6.25 16.875 6.25ZM20 3.125H23.5586C23.8368 3.125 24.094 2.97711 24.2338 2.73664C24.6616 2.00148 25.4153 1.5625 26.25 1.56172H34.7099C34.3874 2.47195 33.5186 3.125 32.5 3.125H28.9414C28.6632 3.125 28.406 3.27289 28.2662 3.51336C27.8384 4.24852 27.0847 4.6875 26.25 4.6875H17.7901C18.1126 3.77805 18.9814 3.125 20 3.125Z" fill="#353FFC"/>
<path d="M39.2188 25.8594C39.6502 25.8594 40 25.5096 40 25.0781C40 24.6467 39.6502 24.2969 39.2188 24.2969C38.7873 24.2969 38.4375 24.6467 38.4375 25.0781C38.4375 25.5096 38.7873 25.8594 39.2188 25.8594Z" fill="#353FFC"/>
<path d="M39.595 17.2841C39.3452 17.1469 39.0405 17.1565 38.8 17.3092L30.1562 22.7973V17.9688C30.1562 17.6838 30.0011 17.4214 29.7513 17.2841C29.5016 17.1469 29.1968 17.1565 28.9563 17.3092L20.3125 22.7973V17.9688C20.3125 17.6806 20.154 17.4159 19.9 17.28C19.7855 17.2188 19.6601 17.1897 19.5348 17.1891C19.3857 15.5501 18.9448 10.7012 18.7468 8.52297C18.7102 8.12055 18.3728 7.8125 17.9688 7.8125H14.8438C14.4397 7.8125 14.1023 8.12055 14.0657 8.52297C13.9181 10.1465 12.9948 20.3056 12.8902 21.4573L10.9375 22.759V17.9688C10.9375 17.6806 10.7789 17.4159 10.5248 17.2799C10.2709 17.1441 9.96258 17.1589 9.72281 17.3187L8.67242 18.019C8.49188 16.0327 7.97836 10.383 7.8093 8.52297C7.77266 8.12055 7.43531 7.8125 7.03125 7.8125H3.90625C3.50219 7.8125 3.16484 8.12055 3.1282 8.52297C3.05492 9.32906 1.93531 21.648 1.8518 22.5666L0.348047 23.5686C0.130625 23.7135 0 23.9575 0 24.2188V36.7188C0 37.1502 0.349766 37.5 0.78125 37.5H39.2188C39.6502 37.5 40 37.1502 40 36.7188V28.5938C40 28.1623 39.6502 27.8125 39.2188 27.8125C38.7873 27.8125 38.4375 28.1623 38.4375 28.5938V31.25H33.2812V27.3438C33.2812 26.9123 32.9315 26.5625 32.5 26.5625H23.125C22.6935 26.5625 22.3438 26.9123 22.3438 27.3438V31.25H17.1875V27.3438C17.1875 26.9123 16.8377 26.5625 16.4062 26.5625H7.03125C6.59977 26.5625 6.25 26.9123 6.25 27.3438V31.25H1.5625V24.637C12.9846 17.0222 -0.656093 26.116 9.375 19.4287V24.2188C9.375 24.5069 9.53359 24.7716 9.78758 24.9076C10.0416 25.0434 10.3498 25.0287 10.5896 24.8688L18.75 19.4283V24.2188C18.75 24.5037 18.9052 24.7661 19.155 24.9034C19.4047 25.0407 19.7095 25.031 19.95 24.8783L28.5938 19.3902V24.2188C28.5938 24.5037 28.7489 24.7661 28.9987 24.9034C29.2484 25.0407 29.5532 25.031 29.7937 24.8783L38.4375 19.3902V21.5625C38.4375 21.994 38.7873 22.3438 39.2188 22.3438C39.6502 22.3438 40 21.994 40 21.5625V17.9688C40 17.6838 39.8448 17.4214 39.595 17.2841ZM38.4375 32.8125V35.9375H33.2812V32.8125H38.4375ZM31.7188 35.9375H28.5938V28.125H31.7188V35.9375ZM23.9062 28.125H27.0312V35.9375H23.9062V28.125ZM22.3438 32.8125V35.9375H17.1875V32.8125H22.3438ZM15.625 35.9375H12.5V28.125H15.625V35.9375ZM7.8125 28.125H10.9375V35.9375H7.8125V28.125ZM6.25 32.8125V35.9375H1.5625V32.8125H6.25ZM4.33562 12.5H6.60187L7.19312 19.0051L3.52195 21.4524L4.33562 12.5ZM6.31789 9.375L6.45992 10.9375H4.47766L4.61969 9.375H6.31789ZM17.2554 9.375L17.3974 10.9375H15.4152L15.5572 9.375H17.2554ZM15.2731 12.5H17.5395L18.0416 18.0229L14.5602 20.3438L15.2731 12.5Z" fill="#353FFC"/>
</svg>
