<svg width="39" height="46" viewBox="0 0 39 46" fill="none" xmlns="http://www.w3.org/2000/svg">
<path d="M27.1738 18.1811C26.9744 17.8893 26.5999 17.7557 26.262 17.8679C25.9397 17.975 25.7162 18.2821 25.7157 18.6225C25.7149 19.3096 26.567 19.6719 27.0623 19.1974C27.3377 18.9334 27.3836 18.4991 27.1738 18.1811C27.2024 18.2246 27.144 18.1375 27.1738 18.1811Z" fill="#353FFC"/>
<path d="M37.932 22.8427L34.4303 18.1472C34.28 17.9458 34.0435 17.8271 33.7922 17.8271H28.9736C28.5339 17.8271 28.1777 18.1834 28.1777 18.623C28.1777 19.0625 28.5339 19.4188 28.9736 19.4188H33.393L36.3011 23.3185L33.393 27.2181H11.9861V19.4188H23.9754C24.4151 19.4188 24.7713 19.0625 24.7713 18.623C24.7713 18.1834 24.4151 17.8271 23.9754 17.8271H21.1142V15.4396H26.8996C27.3393 15.4396 27.6955 15.0833 27.6955 14.6437V5.25284C27.6955 4.8133 27.3393 4.45695 26.8996 4.45695H21.1142V0.795884C21.1142 0.356344 20.7579 0 20.3183 0H17.7715C17.3318 0 16.9756 0.356344 16.9756 0.795884V4.45695H4.29756C4.04628 4.45695 3.80974 4.57559 3.65958 4.777L0.157903 9.47251C-0.0526345 9.75478 -0.0526345 10.1419 0.157903 10.4242L3.65969 15.1197C3.80985 15.3211 4.04638 15.4397 4.29767 15.4397H16.9756V17.8272H11.1901C10.7505 17.8272 10.3942 18.1835 10.3942 18.6231V28.0141C10.3942 28.4536 10.7505 28.81 11.1901 28.81H16.9756V45.2041C16.9756 45.6437 17.3318 46 17.7715 46H20.3183C20.7579 46 21.1142 45.6437 21.1142 45.2041V28.81H33.7922C34.0435 28.81 34.28 28.6913 34.4303 28.4899L37.932 23.7944C38.1424 23.512 38.1424 23.125 37.932 22.8427ZM18.5673 1.59177H19.5224V4.45695H18.5673V1.59177ZM1.78872 9.94834L4.69689 6.04872H26.1037V13.848H4.69689L1.78872 9.94834ZM18.5673 15.4397H19.5224V17.8272H18.5673V15.4397ZM19.5224 44.4081H18.5673V28.8099H19.5224V44.4081Z" fill="#353FFC"/>
</svg>
