<svg width="15" height="12" viewBox="0 0 15 12" fill="none" xmlns="http://www.w3.org/2000/svg">
<path d="M13.133 0H1.82531C0.870967 0 0.0945435 0.776423 0.0945435 1.73077V3.15851L6.44621 7.88296C6.75512 8.11272 7.11714 8.22762 7.47916 8.22762C7.84118 8.22762 8.2032 8.11275 8.51211 7.88296L14.8638 3.15851V1.73077C14.8638 0.776423 14.0874 0 13.133 0ZM13.7099 2.57873L7.8235 6.95712C7.61753 7.11032 7.34078 7.11032 7.13485 6.95712L1.24839 2.57873V1.73077C1.24839 1.41265 1.5072 1.15385 1.82531 1.15385H13.133C13.4511 1.15385 13.7099 1.41265 13.7099 1.73077V2.57873ZM13.7099 5.45478L14.8638 4.59655V10.2692C14.8638 11.2236 14.0874 12 13.133 12H1.82531C0.870967 12 0.0945435 11.2236 0.0945435 10.2692V4.59655L1.24839 5.45478V10.2692C1.24839 10.5873 1.5072 10.8462 1.82531 10.8462H13.133C13.4511 10.8462 13.7099 10.5873 13.7099 10.2692V5.45478Z" fill="black"/>
</svg>
