<svg width="40" height="40" viewBox="0 0 40 40" fill="none" xmlns="http://www.w3.org/2000/svg">
<path d="M39.2188 34.6875H37.6562V4.375C37.6562 3.94352 37.3064 3.59375 36.875 3.59375H31.1198V0.78125C31.1198 0.349766 30.7699 0 30.3385 0H9.66148C9.23008 0 8.88023 0.349766 8.88023 0.78125V3.59375H3.125C2.69359 3.59375 2.34375 3.94352 2.34375 4.375V34.6875H0.78125C0.349766 34.6875 0 35.0373 0 35.4688V39.2188C0 39.6502 0.349766 40 0.78125 40H16.4847C16.9161 40 17.2659 39.6502 17.2659 39.2188C17.2659 38.7873 16.9161 38.4375 16.4847 38.4375H1.5625V36.25H38.4375V38.4375H23.5155C23.0841 38.4375 22.7342 38.7873 22.7342 39.2188C22.7342 39.6502 23.0841 40 23.5155 40H39.2188C39.6502 40 40 39.6502 40 39.2188V35.4688C40 35.0373 39.6502 34.6875 39.2188 34.6875ZM10.4427 1.5625H29.5573V3.59375H10.4427V1.5625ZM19.2188 34.6875H15.1562V30C15.1562 27.5952 16.9182 25.5949 19.2188 25.2202V34.6875ZM20.7812 34.6875V25.2202C23.0818 25.5949 24.8438 27.5952 24.8438 30V34.6875H20.7812ZM26.4062 34.6875V30C26.4062 26.4676 23.5324 23.5938 20 23.5938C16.4676 23.5938 13.5938 26.4676 13.5938 30V34.6875H3.90625V5.15625H36.0938V34.6875H26.4062Z" fill="#353FFC"/>
<path d="M10.625 8.59375H6.875C6.44359 8.59375 6.09375 8.94352 6.09375 9.375V13.125C6.09375 13.5565 6.44359 13.9062 6.875 13.9062H10.625C11.0565 13.9062 11.4062 13.5565 11.4062 13.125V9.375C11.4062 8.94352 11.0565 8.59375 10.625 8.59375ZM9.84375 12.3438H7.65625V10.1562H9.84375V12.3438Z" fill="#353FFC"/>
<path d="M18.125 8.59375H14.375C13.9435 8.59375 13.5938 8.94352 13.5938 9.375V13.125C13.5938 13.5565 13.9435 13.9062 14.375 13.9062H18.125C18.5565 13.9062 18.9062 13.5565 18.9062 13.125V9.375C18.9062 8.94352 18.5565 8.59375 18.125 8.59375ZM17.3438 12.3438H15.1562V10.1562H17.3438V12.3438Z" fill="#353FFC"/>
<path d="M25.625 8.59375H21.875C21.4436 8.59375 21.0938 8.94352 21.0938 9.375V13.125C21.0938 13.5565 21.4436 13.9062 21.875 13.9062H25.625C26.0564 13.9062 26.4062 13.5565 26.4062 13.125V9.375C26.4062 8.94352 26.0564 8.59375 25.625 8.59375ZM24.8438 12.3438H22.6562V10.1562H24.8438V12.3438Z" fill="#353FFC"/>
<path d="M33.125 8.59375H29.375C28.9436 8.59375 28.5938 8.94352 28.5938 9.375V13.125C28.5938 13.5565 28.9436 13.9062 29.375 13.9062H33.125C33.5564 13.9062 33.9062 13.5565 33.9062 13.125V9.375C33.9062 8.94352 33.5564 8.59375 33.125 8.59375ZM32.3438 12.3438H30.1562V10.1562H32.3438V12.3438Z" fill="#353FFC"/>
<path d="M10.625 16.0938H6.875C6.44359 16.0938 6.09375 16.4435 6.09375 16.875V20.625C6.09375 21.0565 6.44359 21.4062 6.875 21.4062H10.625C11.0565 21.4062 11.4062 21.0565 11.4062 20.625V16.875C11.4062 16.4435 11.0565 16.0938 10.625 16.0938ZM9.84375 19.8438H7.65625V17.6562H9.84375V19.8438Z" fill="#353FFC"/>
<path d="M18.125 16.0938H14.375C13.9435 16.0938 13.5938 16.4435 13.5938 16.875V20.625C13.5938 21.0565 13.9435 21.4062 14.375 21.4062H18.125C18.5565 21.4062 18.9062 21.0565 18.9062 20.625V16.875C18.9062 16.4435 18.5565 16.0938 18.125 16.0938ZM17.3438 19.8438H15.1562V17.6562H17.3438V19.8438Z" fill="#353FFC"/>
<path d="M25.625 16.0938H21.875C21.4436 16.0938 21.0938 16.4435 21.0938 16.875V20.625C21.0938 21.0565 21.4436 21.4062 21.875 21.4062H25.625C26.0564 21.4062 26.4062 21.0565 26.4062 20.625V16.875C26.4062 16.4435 26.0564 16.0938 25.625 16.0938ZM24.8438 19.8438H22.6562V17.6562H24.8438V19.8438Z" fill="#353FFC"/>
<path d="M33.125 16.0938H29.375C28.9436 16.0938 28.5938 16.4435 28.5938 16.875V20.625C28.5938 21.0565 28.9436 21.4062 29.375 21.4062H33.125C33.5564 21.4062 33.9062 21.0565 33.9062 20.625V16.875C33.9062 16.4435 33.5564 16.0938 33.125 16.0938ZM32.3438 19.8438H30.1562V17.6562H32.3438V19.8438Z" fill="#353FFC"/>
<path d="M10.625 23.5938H6.875C6.44359 23.5938 6.09375 23.9435 6.09375 24.375V28.125C6.09375 28.5565 6.44359 28.9062 6.875 28.9062H10.625C11.0565 28.9062 11.4062 28.5565 11.4062 28.125V24.375C11.4062 23.9435 11.0565 23.5938 10.625 23.5938ZM9.84375 27.3438H7.65625V25.1562H9.84375V27.3438Z" fill="#353FFC"/>
<path d="M33.125 23.5938H29.375C28.9436 23.5938 28.5938 23.9435 28.5938 24.375V28.125C28.5938 28.5565 28.9436 28.9062 29.375 28.9062H33.125C33.5564 28.9062 33.9062 28.5565 33.9062 28.125V24.375C33.9062 23.9435 33.5564 23.5938 33.125 23.5938ZM32.3438 27.3438H30.1562V25.1562H32.3438V27.3438Z" fill="#353FFC"/>
<path d="M20 38.4375C19.7945 38.4375 19.593 38.5211 19.4477 38.6664C19.3023 38.8117 19.2188 39.0133 19.2188 39.2188C19.2188 39.4242 19.3023 39.6258 19.4477 39.7711C19.593 39.9164 19.7945 40 20 40C20.2055 40 20.407 39.9164 20.5523 39.7711C20.6976 39.6258 20.7812 39.4242 20.7812 39.2188C20.7812 39.0133 20.6977 38.8117 20.5523 38.6664C20.407 38.5211 20.2055 38.4375 20 38.4375Z" fill="#353FFC"/>
</svg>
