<svg width="50" height="37" viewBox="0 0 50 37" fill="none" xmlns="http://www.w3.org/2000/svg">
<path d="M15.1615 9.23405e-07H12.5968C11.9234 0.0534562 11.3562 0.524255 11.1796 1.17631L0.0652966 34.97C-0.062655 35.346 -0.000310907 35.7608 0.232543 36.0826C0.535327 36.4697 1.00623 36.6869 1.49719 36.6659H1.49919L6.53859 36.6603C7.34753 36.6921 8.0791 36.1825 8.32972 35.4127L16.2586 1.62672C16.3712 1.21152 16.2875 0.767648 16.0316 0.421909C15.8217 0.155123 15.5009 -0.000437301 15.1615 9.23405e-07ZM1.4516 34.9952C1.46813 35.0009 1.48365 35.0091 1.4976 35.0196L1.49844 35.8326L1.4516 34.9952ZM6.72783 34.9444C6.66906 34.9766 6.60317 34.9935 6.53617 34.9936L1.81051 34.9993L12.7628 1.69713C12.766 1.6866 12.7702 1.67638 12.7754 1.66663H14.5376L6.72783 34.9444Z" fill="white"/>
<path d="M31.425 0H18.5753C17.8868 0.0636404 17.3415 0.60907 17.2781 1.29756L11.6874 35.0726C11.6207 35.4532 11.7257 35.8439 11.9743 36.1399C12.2709 36.478 12.7018 36.6676 13.1514 36.6578L25.0001 36.6409L36.8499 36.6576C37.2991 36.6671 37.7296 36.4776 38.0258 36.1397C38.2732 35.846 38.3787 35.4582 38.314 35.0797L32.7209 1.29022C32.6554 0.604464 32.111 0.0624557 31.425 0V0ZM25.0001 1.66663H25.903L26.0023 5.83322H23.998L24.0972 1.66663H25.0001ZM23.3376 34.9606L23.4389 30.008L24.9956 29.9994L26.5614 30.0116L26.6631 34.9741L23.3376 34.9606ZM28.3302 34.9791L28.224 29.8151C28.1793 28.9652 27.4602 28.3088 26.6098 28.3417L24.9956 28.3328L23.3949 28.3417C22.5426 28.3077 21.821 28.9648 21.7755 29.8167L21.6704 34.9789L13.3907 34.9903L18.9158 1.66663H22.4302L22.3256 6.05621C22.3131 6.44645 22.4577 6.82538 22.7268 7.10819C22.9659 7.35767 23.2963 7.49907 23.6418 7.49985H26.3584C26.704 7.4991 27.0344 7.35769 27.2735 7.10819C27.5423 6.82598 27.6869 6.44779 27.6747 6.05821L27.5701 1.66663H31.0938L36.6103 34.991L28.3302 34.9791Z" fill="white"/>
<path d="M43.4625 36.6603L48.5007 36.6659H48.5023C48.9936 36.6869 49.4648 36.4694 49.7677 36.082C50.0006 35.7603 50.0627 35.3455 49.9344 34.9696L38.821 1.17673C38.6444 0.524499 38.0771 0.0535486 37.4035 1.27492e-06H34.8388C34.4993 -0.000513782 34.1784 0.155054 33.9685 0.42191C33.7125 0.767828 33.629 1.21184 33.7416 1.62714L41.6708 35.4123C41.9215 36.1824 42.6533 36.6921 43.4625 36.6603ZM37.2249 1.66663C37.2299 1.67648 37.2343 1.68668 37.2379 1.69713L48.1898 34.9993L43.4649 34.9941C43.3979 34.994 43.3319 34.977 43.2732 34.9448L35.463 1.66663H37.2249Z" fill="white"/>
<path d="M23.5418 15.833H26.4584C26.8587 15.8373 27.244 15.6804 27.5273 15.3976C27.7697 15.1522 27.9012 14.8184 27.8915 14.4736L27.7832 10.4718C27.7519 9.73056 27.1335 9.15046 26.3918 9.16649H23.6085C22.8661 9.15048 22.2474 9.73153 22.2169 10.4735L22.1085 14.4724C22.0986 14.8175 22.2302 15.1517 22.4727 15.3974C22.7561 15.6803 23.1414 15.8373 23.5418 15.833ZM23.8747 10.8331H26.1256L26.2159 14.1664H23.7843L23.8747 10.8331Z" fill="white"/>
<path d="M26.5001 18.333H23.5002C22.705 18.3214 22.0427 18.9401 22.0002 19.7343L21.8919 24.3981C21.8832 24.759 22.022 25.1079 22.2764 25.3641C22.5837 25.669 23.0006 25.8379 23.4335 25.8328H26.5668C26.9996 25.8378 27.4163 25.669 27.7236 25.3641C27.9774 25.1087 28.1162 24.7609 28.1081 24.4009L27.9997 19.7314C27.956 18.9384 27.2942 18.3213 26.5001 18.333ZM23.5647 24.1649L23.6615 19.9996H26.3388L26.4357 24.1662L23.5647 24.1649Z" fill="white"/>
</svg>
