<svg width="146" height="53" viewBox="0 0 146 53" fill="none" xmlns="http://www.w3.org/2000/svg">
<path d="M64.0319 29.1778C64.0319 31.0378 62.7192 32.1205 60.5685 32.1205H56.2673V26.0962H60.4568C62.5795 26.0962 64.0319 27.2622 64.0319 29.1778ZM63.5292 20.7659C63.5292 22.5427 62.2723 23.5143 60.2055 23.5143H56.2673V17.9897H60.2055C62.2723 17.9897 63.5292 19.0169 63.5292 20.7659ZM67.216 29.5109C67.216 27.2067 65.5402 25.1523 63.4733 24.7914C65.3447 24.1251 66.7691 22.7092 66.7691 20.3772C66.7691 17.6566 64.5905 15.4078 60.4848 15.4078H53.0832V34.7024H60.8479C64.814 34.7024 67.216 32.4537 67.216 29.5109Z" fill="#353FFC"/>
<path d="M70.6761 34.7024H73.8602V15.4078H70.6761V34.7024Z" fill="#353FFC"/>
<path d="M91.1399 29.2333C91.1399 22.1818 80.8615 24.9024 80.8615 20.5438C80.8615 18.6838 82.286 17.7954 84.1294 17.8509C86.1404 17.9064 87.2855 19.1002 87.3973 20.405H90.9165C90.6372 17.1013 88.0117 15.158 84.297 15.158C80.3309 15.158 77.6216 17.2679 77.6216 20.6548C77.6216 27.7619 87.9279 24.7358 87.9279 29.3998C87.9279 31.0378 86.6711 32.2316 84.4366 32.2316C82.2301 32.2316 81.1129 30.9545 80.9733 29.3721H77.5657C77.5657 32.7868 80.5543 34.8967 84.4366 34.8967C88.7659 34.8967 91.1399 32.1205 91.1399 29.2333Z" fill="#353FFC"/>
<path d="M94.897 34.7024H98.0811V21.4877L104.03 34.7024H106.237L112.158 21.4877V34.7024H115.342V15.4078H111.935L105.147 30.5381L98.3325 15.4078H94.897V34.7024Z" fill="#353FFC"/>
<path d="M132.626 34.7024H135.978L129.023 15.3801H125.337L118.382 34.7024H121.706L123.102 30.7602H131.23L132.626 34.7024ZM130.336 28.1783H123.996L127.18 19.2112L130.336 28.1783Z" fill="#353FFC"/>
<path fill-rule="evenodd" clip-rule="evenodd" d="M38.3329 23.503L30.9115 10.7262C29.4455 8.2024 25.7806 8.2024 24.3146 10.7262L16.8932 23.503C15.4272 26.0268 17.2597 29.1816 20.1916 29.1816H35.0345C37.9664 29.1816 39.7989 26.0268 38.3329 23.503ZM33.1104 9.4643C30.6671 5.25795 24.5589 5.25796 22.1157 9.4643L14.6942 22.2411C12.2509 26.4474 15.305 31.7054 20.1916 31.7054H35.0345C39.9211 31.7054 42.9752 26.4474 40.5319 22.2411L33.1104 9.4643Z" fill="#353FFC"/>
<path fill-rule="evenodd" clip-rule="evenodd" d="M31.9851 34.2292L24.5636 21.4524C23.0977 18.9286 19.4327 18.9286 17.9668 21.4524L10.5453 34.2292C9.07935 36.753 10.9118 39.9078 13.8437 39.9078H28.6867C31.6186 39.9078 33.4511 36.753 31.9851 34.2292ZM26.7626 20.1905C24.3193 15.9841 18.2111 15.9842 15.7678 20.1905L8.34637 32.9673C5.90309 37.1736 8.95719 42.4316 13.8437 42.4316H28.6867C33.5732 42.4316 36.6273 37.1736 34.184 32.9673L26.7626 20.1905Z" fill="#353FFC"/>
</svg>
