<svg width="147" height="53" viewBox="0 0 147 53" fill="none" xmlns="http://www.w3.org/2000/svg">
<path d="M64.1265 29.1777C64.1265 31.0378 62.8137 32.1205 60.6631 32.1205H56.3618V26.0962H60.5514C62.6741 26.0962 64.1265 27.2622 64.1265 29.1777ZM63.6237 20.7659C63.6237 22.5426 62.3668 23.5143 60.3 23.5143H56.3618V17.9897H60.3C62.3668 17.9897 63.6237 19.0169 63.6237 20.7659ZM67.3105 29.5109C67.3105 27.2066 65.6347 25.1522 63.5679 24.7913C65.4392 24.1251 66.8636 22.7092 66.8636 20.3772C66.8636 17.6565 64.6851 15.4078 60.5793 15.4078H53.1777V34.7023H60.9424C64.9085 34.7023 67.3105 32.4536 67.3105 29.5109Z" fill="#565656"/>
<path d="M70.7706 34.7023H73.9547V15.4078H70.7706V34.7023Z" fill="#565656"/>
<path d="M91.2345 29.2332C91.2345 22.1817 80.9561 24.9024 80.9561 20.5438C80.9561 18.6837 82.3805 17.7953 84.2239 17.8509C86.2349 17.9064 87.3801 19.1001 87.4918 20.405H91.011C90.7317 17.1013 88.1063 15.158 84.3915 15.158C80.4254 15.158 77.7162 17.2679 77.7162 20.6548C77.7162 27.7619 88.0225 24.7358 88.0225 29.3998C88.0225 31.0378 86.7656 32.2315 84.5312 32.2315C82.3247 32.2315 81.2075 30.9545 81.0678 29.3721H77.6603C77.6603 32.7868 80.6488 34.8967 84.5312 34.8967C88.8604 34.8967 91.2345 32.1205 91.2345 29.2332Z" fill="#565656"/>
<path d="M94.9916 34.7023H98.1756V21.4877L104.125 34.7023H106.331L112.253 21.4877V34.7023H115.437V15.4078H112.029L105.242 30.5381L98.427 15.4078H94.9916V34.7023Z" fill="#565656"/>
<path d="M132.721 34.7023H136.073L129.118 15.3801H125.431L118.476 34.7023H121.8L123.197 30.7601H131.324L132.721 34.7023ZM130.431 28.1783H124.09L127.275 19.2112L130.431 28.1783Z" fill="#565656"/>
<path fill-rule="evenodd" clip-rule="evenodd" d="M38.4275 23.503L31.006 10.7262C29.5401 8.20243 25.8751 8.20243 24.4092 10.7262L16.9877 23.503C15.5217 26.0268 17.3542 29.1816 20.2861 29.1816H35.1291C38.061 29.1816 39.8934 26.0268 38.4275 23.503ZM33.205 9.46433C30.7617 5.25798 24.6535 5.25799 22.2102 9.46433L14.7888 22.2411C12.3455 26.4475 15.3996 31.7054 20.2861 31.7054H35.1291C40.0156 31.7054 43.0697 26.4475 40.6264 22.2411L33.205 9.46433Z" fill="#565656"/>
<path fill-rule="evenodd" clip-rule="evenodd" d="M32.0796 34.2291L24.6582 21.4523C23.1922 18.9285 19.5273 18.9285 18.0613 21.4523L10.6399 34.2291C9.1739 36.7529 11.0064 39.9077 13.9383 39.9077H28.7812C31.7131 39.9077 33.5456 36.7529 32.0796 34.2291ZM26.8571 20.1904C24.4139 15.9841 18.3056 15.9841 15.8624 20.1904L8.44091 32.9672C5.99763 37.1735 9.05173 42.4315 13.9383 42.4315H28.7812C33.6678 42.4315 36.7219 37.1735 34.2786 32.9672L26.8571 20.1904Z" fill="#565656"/>
</svg>
